# This file uses centimeters as units for non-parametric coordinates.

mtllib TreasureChest.mtl
g default
v -3.953530 0.000000 1.890220
v 3.622160 0.000000 1.890220
v -3.953530 2.709859 1.890220
v 3.622160 2.709859 1.890220
v -3.953530 2.709859 -3.332974
v 3.622160 2.709859 -3.332974
v -3.953530 0.000000 -3.332974
v 3.622160 0.000000 -3.332974
v -3.642936 0.310594 1.579626
v 3.311566 0.310594 1.579626
v 3.353178 2.709859 1.621237
v -3.684547 2.709859 1.621237
v -3.684547 2.709859 -3.063992
v 3.353178 2.709859 -3.063992
v 3.311566 0.310594 -3.022380
v -3.642936 0.310594 -3.022380
vt 0.375000 0.000000
vt 0.625000 0.000000
vt 0.375000 0.250000
vt 0.625000 0.250000
vt 0.375000 0.500000
vt 0.625000 0.500000
vt 0.375000 0.750000
vt 0.625000 0.750000
vt 0.375000 1.000000
vt 0.625000 1.000000
vt 0.875000 0.000000
vt 0.875000 0.250000
vt 0.125000 0.000000
vt 0.125000 0.250000
vt 0.375000 0.000000
vt 0.625000 0.000000
vt 0.625000 0.250000
vt 0.375000 0.250000
vt 0.375000 0.500000
vt 0.625000 0.500000
vt 0.625000 0.750000
vt 0.375000 0.750000
vt 0.625000 1.000000
vt 0.375000 1.000000
vt 0.875000 0.000000
vt 0.875000 0.250000
vt 0.125000 0.000000
vt 0.125000 0.250000
vt 0.625000 0.250000
vt 0.375000 0.250000
vt 0.375000 0.500000
vt 0.625000 0.500000
vt 0.875000 0.250000
vt 0.125000 0.250000
vn 0.000000 0.017341 -0.999850
vn 0.000000 0.017341 -0.999850
vn 0.000000 0.017341 -0.999850
vn 0.000000 0.017341 -0.999850
vn 0.000000 0.017341 0.999850
vn 0.000000 0.017341 0.999850
vn 0.000000 0.017341 0.999850
vn 0.000000 0.017341 0.999850
vn 0.000000 1.000000 0.000000
vn 0.000000 1.000000 0.000000
vn 0.000000 1.000000 0.000000
vn 0.000000 1.000000 0.000000
vn -0.999850 0.017341 0.000000
vn -0.999850 0.017341 0.000000
vn -0.999850 0.017341 0.000000
vn -0.999850 0.017341 0.000000
vn 0.999850 0.017341 0.000000
vn 0.999850 0.017341 0.000000
vn 0.999850 0.017341 0.000000
vn 0.999850 0.017341 0.000000
vn 0.000000 0.000000 1.000000
vn 0.000000 0.000000 1.000000
vn 0.000000 0.000000 1.000000
vn 0.000000 0.000000 1.000000
vn 0.000000 0.000000 -1.000000
vn 0.000000 0.000000 -1.000000
vn 0.000000 0.000000 -1.000000
vn 0.000000 0.000000 -1.000000
vn 0.000000 -1.000000 0.000000
vn 0.000000 -1.000000 0.000000
vn 0.000000 -1.000000 0.000000
vn 0.000000 -1.000000 0.000000
vn 1.000000 0.000000 0.000000
vn 1.000000 0.000000 0.000000
vn 1.000000 0.000000 0.000000
vn 1.000000 0.000000 0.000000
vn -1.000000 0.000000 0.000000
vn -1.000000 0.000000 0.000000
vn -1.000000 0.000000 0.000000
vn -1.000000 0.000000 0.000000
vn 0.000000 1.000000 0.000000
vn 0.000000 1.000000 0.000000
vn 0.000000 1.000000 0.000000
vn 0.000000 1.000000 0.000000
vn 0.000000 1.000000 0.000000
vn 0.000000 1.000000 0.000000
vn 0.000000 1.000000 0.000000
vn 0.000000 1.000000 0.000000
vn 0.000000 1.000000 0.000000
vn 0.000000 1.000000 0.000000
vn 0.000000 1.000000 0.000000
vn 0.000000 1.000000 0.000000
vn 0.000000 1.000000 0.000000
vn 0.000000 1.000000 0.000000
vn 0.000000 1.000000 0.000000
vn 0.000000 1.000000 0.000000
s off
g lid
usemtl initialShadingGroup
f 9/1/1 12/30/2 11/29/3 10/2/4
f 13/31/5 16/7/6 15/8/7 14/32/8
f 16/7/9 9/9/10 10/10/11 15/8/12
f 10/2/13 11/29/14 14/33/15 15/11/16
f 16/13/17 13/34/18 12/30/19 9/1/20
f 1/15/21 2/16/22 4/17/23 3/18/24
f 5/19/25 6/20/26 8/21/27 7/22/28
f 7/22/29 8/21/30 2/23/31 1/24/32
f 2/16/33 8/25/34 6/26/35 4/17/36
f 7/27/37 1/15/38 3/18/39 5/28/40
f 4/4/41 11/29/42 12/30/43 3/3/44
f 5/5/45 13/31/46 14/32/47 6/6/48
f 6/12/49 14/33/50 11/29/51 4/4/52
f 3/3/53 12/30/54 13/34/55 5/14/56
g default
v -3.943374 3.468510 -3.196191
v -3.943374 4.195445 -2.825316
v -3.943373 4.772345 -2.247665
v -3.943373 5.142737 -1.519783
v -3.943373 5.270365 -0.712920
v -3.943374 5.142737 0.093944
v -3.943374 4.772345 0.821826
v -3.943374 4.195445 1.399476
v -3.943374 3.468510 1.770350
v -3.943374 2.662695 1.898144
v -3.943374 2.662695 -3.323983
v 3.618721 3.468510 -3.196191
v 3.618721 4.195445 -2.825316
v 3.618721 4.772346 -2.247665
v 3.618721 5.142737 -1.519783
v 3.618721 5.270365 -0.712920
v 3.618721 5.142737 0.093944
v 3.618721 4.772344 0.821826
v 3.618721 4.195445 1.399476
v 3.618721 3.468510 1.770350
v 3.618721 2.662695 1.898144
v 3.618721 2.662695 -3.323983
v -3.943373 2.662695 -0.712920
v 3.618721 2.662695 -0.712920
v -3.774753 3.411257 -3.020203
v -3.774748 4.086581 -2.675663
v 3.450095 4.086581 -2.675663
v 3.450100 3.411257 -3.020203
v -3.774741 4.622568 -2.138980
v 3.450089 4.622568 -2.138980
v -3.774736 4.966722 -1.462663
v 3.450083 4.966722 -1.462663
v -3.774734 5.085316 -0.712920
v 3.450082 5.085316 -0.712920
v -3.774736 4.966722 0.036824
v 3.450084 4.966722 0.036824
v -3.774741 4.622567 0.713141
v 3.450088 4.622567 0.713140
v -3.774748 4.086580 1.249822
v 3.450095 4.086580 1.249822
v -3.774753 3.411257 1.594362
v 3.450100 3.411257 1.594362
v -3.818191 2.643087 -3.200346
v 3.493538 2.643087 -3.200346
v -3.693009 2.662695 -0.712920
v -3.818191 2.643088 1.774507
v 3.368356 2.662695 -0.712920
v 3.493538 2.643088 1.774507
v -3.663898 4.195445 1.399476
v -3.663898 4.772345 0.821826
v -3.663898 5.142737 0.093944
v -3.663898 5.270365 -0.712920
v -3.663898 5.142737 -1.519783
v -3.663898 4.772345 -2.247665
v -3.663898 4.195445 -2.825316
v -3.663898 3.468510 -3.196191
v -3.663898 2.662695 -3.323983
v -3.547969 2.643087 -3.200346
v -3.507741 3.411257 -3.020203
v -3.507736 4.086581 -2.675663
v -3.507730 4.622568 -2.138980
v -3.507726 4.966722 -1.462663
v -3.507724 5.085316 -0.712920
v -3.507726 4.966722 0.036824
v -3.507730 4.622567 0.713141
v -3.507736 4.086580 1.249822
v -3.507741 3.411257 1.594362
v -3.547969 2.643088 1.774507
v -3.663898 2.662695 1.898144
v -3.663898 3.468510 1.770350
v 3.298930 4.772345 0.821826
v 3.298931 5.142737 0.093944
v 3.298930 5.270365 -0.712920
v 3.298930 5.142737 -1.519783
v 3.298930 4.772345 -2.247665
v 3.298930 4.195445 -2.825316
v 3.298930 3.468510 -3.196191
v 3.298930 2.662695 -3.323983
v 3.184335 2.643087 -3.200346
v 3.144571 3.411257 -3.020203
v 3.144566 4.086581 -2.675663
v 3.144561 4.622568 -2.138980
v 3.144556 4.966722 -1.462663
v 3.144554 5.085316 -0.712920
v 3.144556 4.966722 0.036824
v 3.144560 4.622567 0.713140
v 3.144566 4.086580 1.249822
v 3.144571 3.411257 1.594362
v 3.184335 2.643088 1.774507
v 3.298930 2.662695 1.898144
v 3.298930 3.468510 1.770350
v 3.298930 4.195445 1.399476
vt 0.648603 0.107966
vt 0.626409 0.064408
vt 0.591842 0.029841
vt 0.548284 0.007647
vt 0.500000 -0.000000
vt 0.451716 0.007647
vt 0.408159 0.029841
vt 0.373591 0.064409
vt 0.413199 0.210233
vt 0.343750 0.156250
vt 0.656250 0.156250
vt 0.375000 0.312500
vt 0.387500 0.312500
vt 0.400000 0.312500
vt 0.412500 0.312500
vt 0.425000 0.312500
vt 0.437500 0.312500
vt 0.450000 0.312500
vt 0.462500 0.312500
vt 0.500000 0.837500
vt 0.612500 0.312500
vt 0.625000 0.312500
vt 0.375000 0.688440
vt 0.387500 0.688440
vt 0.400000 0.688440
vt 0.412500 0.688440
vt 0.425000 0.688440
vt 0.437500 0.688440
vt 0.450000 0.688440
vt 0.462500 0.688440
vt 0.413199 0.790237
vt 0.612500 0.688440
vt 0.625000 0.688440
vt 0.343750 0.843750
vt 0.500000 0.150000
vt 0.373591 0.935591
vt 0.408159 0.970159
vt 0.451716 0.992353
vt 0.500000 1.000000
vt 0.548284 0.992353
vt 0.591841 0.970159
vt 0.626409 0.935591
vt 0.648603 0.892034
vt 0.656250 0.843750
vt 0.375000 0.312500
vt 0.387500 0.312500
vt 0.387500 0.688440
vt 0.375000 0.688440
vt 0.400000 0.312500
vt 0.400000 0.688440
vt 0.412500 0.312500
vt 0.412500 0.688440
vt 0.425000 0.312500
vt 0.425000 0.688440
vt 0.437500 0.312500
vt 0.437500 0.688440
vt 0.450000 0.312500
vt 0.450000 0.688440
vt 0.462500 0.312500
vt 0.462500 0.688440
vt 0.413199 0.210233
vt 0.413199 0.790237
vt 0.612500 0.312500
vt 0.625000 0.312500
vt 0.625000 0.688440
vt 0.612500 0.688440
vt 0.626409 0.064408
vt 0.648603 0.107966
vt 0.500000 0.150000
vt 0.591842 0.029841
vt 0.548284 0.007647
vt 0.500000 -0.000000
vt 0.451716 0.007647
vt 0.408159 0.029841
vt 0.373591 0.064409
vt 0.343750 0.156250
vt 0.656250 0.156250
vt 0.648603 0.892034
vt 0.626409 0.935591
vt 0.500000 0.837500
vt 0.591841 0.970159
vt 0.548284 0.992353
vt 0.500000 1.000000
vt 0.451716 0.992353
vt 0.408159 0.970159
vt 0.373591 0.935591
vt 0.343750 0.843750
vt 0.656250 0.843750
vt 0.612500 0.688440
vt 0.612500 0.312500
vt 0.500000 0.150000
vt 0.343750 0.156250
vt 0.656250 0.156250
vt 0.343750 0.843750
vt 0.500000 0.837500
vt 0.656250 0.843750
vt 0.462500 0.326394
vt 0.450000 0.326394
vt 0.437500 0.326394
vt 0.425000 0.326394
vt 0.412500 0.326394
vt 0.400000 0.326394
vt 0.387500 0.326394
vt 0.625000 0.326394
vt 0.375000 0.326394
vt 0.612500 0.326394
vt 0.612500 0.326394
vt 0.612500 0.326394
vt 0.375000 0.326394
vt 0.625000 0.326394
vt 0.387500 0.326394
vt 0.400000 0.326394
vt 0.412500 0.326394
vt 0.425000 0.326394
vt 0.437500 0.326394
vt 0.450000 0.326394
vt 0.462500 0.326394
vt 0.413199 0.231668
vt 0.343750 0.181658
vt 0.343750 0.181658
vt 0.343750 0.181658
vt 0.413199 0.231668
vt 0.450000 0.672542
vt 0.437500 0.672542
vt 0.425000 0.672542
vt 0.412500 0.672542
vt 0.400000 0.672542
vt 0.387500 0.672542
vt 0.625000 0.672542
vt 0.375000 0.672542
vt 0.612500 0.672542
vt 0.612500 0.672542
vt 0.612500 0.672542
vt 0.375000 0.672542
vt 0.625000 0.672542
vt 0.387500 0.672542
vt 0.400000 0.672542
vt 0.412500 0.672542
vt 0.425000 0.672542
vt 0.437500 0.672542
vt 0.450000 0.672542
vt 0.462500 0.672542
vt 0.413199 0.765709
vt 0.343750 0.814677
vt 0.343750 0.814677
vt 0.343750 0.814677
vt 0.413199 0.765709
vt 0.462500 0.672542
vn 0.000000 -0.454457 0.890769
vn 0.000000 -0.454457 0.890769
vn 0.000000 -0.454457 0.890769
vn 0.000000 -0.454457 0.890769
vn 0.000000 -0.707565 0.706648
vn -0.000000 -0.707565 0.706648
vn -0.000000 -0.809382 0.587282
vn 0.000000 -0.707565 0.706648
vn 0.000000 -0.891244 0.453524
vn -0.000000 -0.951175 0.308652
vn 0.000000 -0.891244 0.453524
vn 0.000000 -0.987720 0.156237
vn -0.000000 -0.987720 0.156236
vn 0.000000 -0.987720 0.156237
vn 0.000000 -0.987720 -0.156237
vn 0.000000 -0.987719 -0.156238
vn 0.000000 -0.987720 -0.156238
vn 0.000000 -0.987720 -0.156237
vn 0.000000 -0.891244 -0.453524
vn -0.000000 -0.891244 -0.453524
vn -0.000000 -0.891244 -0.453524
vn 0.000000 -0.891244 -0.453524
vn 0.000000 -0.707564 -0.706649
vn -0.000000 -0.707564 -0.706649
vn -0.000000 -0.707564 -0.706649
vn 0.000000 -0.707564 -0.706649
vn 0.000000 -0.454457 -0.890769
vn 0.000000 -0.454457 -0.890769
vn 0.000000 -0.454457 -0.890769
vn 0.000000 -0.454457 -0.890769
vn 0.000000 -0.228316 0.973587
vn 0.000000 -0.228316 0.973587
vn 0.000000 -0.228316 0.973587
vn 0.000000 -0.228316 0.973587
vn 0.999418 0.015493 -0.030382
vn 0.999418 0.015493 -0.030382
vn 0.999418 0.015493 -0.030382
vn 0.999418 0.024133 -0.024114
vn 0.999418 0.024133 -0.024114
vn 0.999418 0.024133 -0.024114
vn 0.999418 0.030412 -0.015483
vn 0.999418 0.030412 -0.015483
vn 0.999417 0.030412 -0.015483
vn 0.999417 0.033715 -0.005336
vn 0.999417 0.033715 -0.005336
vn 0.999417 0.033715 -0.005336
vn 0.999417 0.033715 0.005336
vn 0.999417 0.033715 0.005336
vn 0.999417 0.033715 0.005336
vn 0.999418 0.030412 0.015483
vn 0.999418 0.030412 0.015483
vn 0.999417 0.030412 0.015483
vn 0.999418 0.024133 0.024113
vn 0.999418 0.024133 0.024113
vn 0.999418 0.024133 0.024113
vn 0.999418 0.015492 0.030382
vn 0.999418 0.015492 0.030382
vn 0.999418 0.015492 0.030382
vn 0.997754 -0.044728 0.049861
vn 0.997754 -0.044728 0.049861
vn 0.997754 -0.044728 0.049861
vn 0.997754 -0.044728 -0.049861
vn 0.997754 -0.044728 -0.049861
vn 0.997754 -0.044728 -0.049861
vn -0.999418 0.015493 -0.030382
vn -0.999418 0.015493 -0.030382
vn -0.999418 0.015493 -0.030382
vn -0.999418 0.024133 -0.024113
vn -0.999418 0.024133 -0.024113
vn -0.999418 0.024133 -0.024113
vn -0.999417 0.030412 -0.015483
vn -0.999417 0.030412 -0.015483
vn -0.999417 0.030412 -0.015483
vn -0.999417 0.033715 -0.005336
vn -0.999417 0.033715 -0.005336
vn -0.999417 0.033715 -0.005336
vn -0.999417 0.033715 0.005336
vn -0.999417 0.033715 0.005336
vn -0.999417 0.033715 0.005336
vn -0.999418 0.030413 0.015483
vn -0.999418 0.030413 0.015483
vn -0.999418 0.030413 0.015483
vn -0.999418 0.024132 0.024114
vn -0.999418 0.024132 0.024114
vn -0.999418 0.024132 0.024114
vn -0.999418 0.015493 0.030382
vn -0.999418 0.015493 0.030382
vn -0.999418 0.015493 0.030382
vn -0.997754 -0.044728 0.049860
vn -0.997754 -0.044728 0.049860
vn -0.997754 -0.044728 0.049860
vn -0.997754 -0.044729 -0.049860
vn -0.997754 -0.044729 -0.049860
vn -0.997754 -0.044729 -0.049860
vn 0.000000 -0.228318 -0.973587
vn 0.000000 -0.228318 -0.973587
vn 0.000000 -0.228318 -0.973587
vn 0.000000 -0.228318 -0.973587
vn 0.000000 0.309380 -0.950939
vn 0.000000 0.588286 -0.808653
vn -0.000000 0.588286 -0.808653
vn 0.000000 0.309380 -0.950939
vn 0.000000 0.809380 -0.587285
vn -0.000000 0.809380 -0.587285
vn 0.000000 0.951175 -0.308653
vn -0.000000 0.951175 -0.308654
vn 0.000000 1.000000 0.000000
vn -0.000000 1.000000 -0.000000
vn 0.000000 0.951175 0.308653
vn -0.000000 0.951175 0.308653
vn 0.000000 0.809380 0.587285
vn 0.000000 0.809380 0.587285
vn 0.000000 0.588285 0.808653
vn 0.000000 0.588286 0.808653
vn 0.000000 0.309380 0.950938
vn 0.000000 0.309380 0.950938
vn 0.000000 0.156631 -0.987657
vn 0.000000 0.072747 -0.997351
vn -1.000000 0.000000 0.000000
vn -1.000000 0.000000 0.000000
vn -1.000000 0.000000 0.000000
vn -1.000000 0.000000 0.000000
vn -1.000000 0.000000 0.000000
vn -1.000000 0.000000 0.000000
vn -1.000000 0.000000 0.000000
vn -1.000000 0.000000 0.000000
vn -1.000000 0.000000 0.000000
vn -1.000000 0.000000 0.000000
vn -1.000000 0.000000 -0.000000
vn -1.000000 0.000000 -0.000000
vn -1.000000 0.000000 -0.000000
vn -1.000000 0.000000 -0.000000
vn -1.000000 0.000000 -0.000000
vn -1.000000 0.000000 -0.000000
vn -1.000000 0.000000 -0.000000
vn -1.000000 0.000000 -0.000000
vn -1.000000 0.000000 -0.000000
vn -1.000000 0.000000 -0.000000
vn -1.000000 0.000000 -0.000000
vn -1.000000 0.000000 -0.000000
vn -1.000000 0.000000 -0.000000
vn -1.000000 0.000000 -0.000000
vn -1.000000 0.000000 -0.000000
vn -1.000000 0.000000 0.000000
vn -1.000000 0.000000 0.000000
vn -1.000000 0.000000 0.000000
vn 1.000000 0.000000 0.000000
vn 1.000000 0.000000 0.000000
vn 1.000000 0.000000 0.000000
vn 1.000000 0.000000 0.000000
vn 1.000000 0.000000 0.000000
vn 1.000000 0.000000 0.000000
vn 1.000000 0.000000 0.000000
vn 1.000000 0.000000 0.000000
vn 1.000000 0.000000 -0.000000
vn 1.000000 0.000000 -0.000000
vn 1.000000 0.000000 -0.000000
vn 1.000000 -0.000000 0.000001
vn 1.000000 -0.000000 0.000001
vn 1.000000 -0.000000 0.000001
vn 1.000000 0.000000 0.000000
vn 1.000000 0.000000 0.000000
vn 1.000000 0.000000 0.000000
vn 1.000000 -0.000000 0.000000
vn 1.000000 -0.000000 0.000000
vn 1.000000 -0.000000 0.000000
vn 1.000000 0.000000 0.000000
vn 1.000000 0.000000 0.000000
vn 1.000000 0.000000 0.000000
vn 1.000000 -0.000001 0.000000
vn 1.000000 -0.000001 0.000000
vn 1.000000 -0.000001 0.000000
vn 0.000000 0.081885 0.996642
vn 0.000000 0.072749 0.997350
vn 0.000000 -0.987657 -0.156632
vn 0.000000 -0.987657 -0.156633
vn 0.000000 -0.987657 -0.156633
vn -0.053833 -0.998537 -0.005162
vn -0.053833 -0.998537 -0.005162
vn -0.053833 -0.998537 -0.005162
vn -0.053833 -0.998537 -0.005162
vn -0.053833 -0.998537 0.005162
vn -0.053833 -0.998537 0.005162
vn -0.053833 -0.998537 0.005162
vn -0.053833 -0.998537 0.005162
vn 0.053834 -0.998537 -0.005162
vn 0.053834 -0.998537 -0.005162
vn 0.053834 -0.998537 -0.005162
vn 0.053834 -0.998537 -0.005162
vn 0.053834 -0.998537 0.005162
vn 0.053834 -0.998537 0.005162
vn 0.053834 -0.998537 0.005162
vn 0.053834 -0.998537 0.005162
vn 0.000000 -0.987657 0.156633
vn 0.000000 -0.987657 0.156632
vn 0.000000 0.588286 0.808653
vn 0.000000 0.809380 0.587285
vn 0.000000 0.951175 0.308653
vn 0.000000 1.000000 -0.000000
vn 0.000000 0.951175 -0.308654
vn -0.000000 0.809380 -0.587285
vn -0.000000 0.588286 -0.808653
vn 0.000000 0.309380 -0.950939
vn 0.000000 0.071490 -0.997441
vn 0.000000 -0.987657 -0.156632
vn 0.000000 -0.228316 0.973587
vn 0.000000 -0.228316 0.973587
vn 0.000000 -0.454457 0.890769
vn 0.000000 -0.454457 0.890769
vn -0.000000 -0.707565 0.706648
vn -0.000000 -0.809383 0.587282
vn -0.000000 -0.951175 0.308652
vn -0.000000 -0.987720 0.156236
vn 0.000000 -0.987720 -0.156238
vn 0.000000 -0.987720 -0.156238
vn -0.000000 -0.891244 -0.453524
vn -0.000000 -0.891244 -0.453524
vn -0.000000 -0.707564 -0.706649
vn -0.000000 -0.707564 -0.706649
vn 0.000000 -0.454457 -0.890769
vn 0.000000 -0.454457 -0.890769
vn 0.000000 -0.228318 -0.973587
vn 0.000000 -0.228318 -0.973587
vn 0.000000 -0.987657 0.156632
vn 0.000000 0.071492 0.997441
vn 0.000000 0.309380 0.950938
vn 0.000001 0.809380 0.587285
vn 0.000001 0.951175 0.308653
vn 0.000001 1.000000 0.000000
vn 0.000000 0.951175 -0.308653
vn -0.000000 0.809381 -0.587285
vn -0.000000 0.588286 -0.808653
vn 0.000000 0.309379 -0.950939
vn 0.000000 0.156631 -0.987657
vn 0.000000 -0.987657 -0.156631
vn 0.000000 -0.987657 -0.156631
vn 0.000000 -0.228316 0.973587
vn 0.000000 -0.228316 0.973587
vn 0.000000 -0.454457 0.890768
vn 0.000000 -0.454457 0.890768
vn 0.000000 -0.707566 0.706648
vn 0.000000 -0.707566 0.706648
vn -0.000001 -0.891244 0.453524
vn -0.000001 -0.891244 0.453524
vn -0.000001 -0.987720 0.156237
vn -0.000001 -0.987720 0.156237
vn 0.000000 -0.987720 -0.156237
vn 0.000000 -0.987720 -0.156237
vn 0.000000 -0.891244 -0.453524
vn 0.000000 -0.891244 -0.453524
vn 0.000000 -0.707565 -0.706649
vn 0.000000 -0.707565 -0.706649
vn 0.000000 -0.454457 -0.890769
vn 0.000000 -0.454457 -0.890769
vn 0.000000 -0.228318 -0.973587
vn 0.000000 -0.228318 -0.973587
vn 0.000000 -0.987657 0.156632
vn 0.000000 0.081885 0.996642
vn 0.000000 0.309380 0.950938
vn 0.000000 0.588286 0.808653
s 1
g trunk
usemtl initialShadingGroup
f 41/46/57 75/143/58 76/145/59 42/47/60
s 2
f 42/47/61 76/145/62 77/146/63 45/48/64
f 45/48/65 77/146/63 78/147/66 47/49/67
f 47/49/68 78/147/66 79/148/69 49/50/70
s 5
f 49/50/71 79/148/72 80/149/73 51/51/74
s 6
f 51/51/75 80/149/76 81/150/77 53/52/78
s 7
f 53/52/79 81/150/80 82/151/81 55/53/82
s 8
f 55/53/83 82/151/84 83/152/85 57/43/86
s 9
f 59/124/87 74/142/88 75/144/89 41/56/90
s off
f 42/36/91 61/69/92 41/35/93
f 45/37/94 61/69/95 42/36/96
f 47/38/97 61/69/98 45/37/99
f 49/39/100 61/69/101 47/38/102
f 51/40/103 61/69/104 49/39/105
f 53/41/106 61/69/107 51/40/108
f 55/42/109 61/69/110 53/41/111
f 57/43/112 61/69/113 55/42/114
f 62/126/115 61/125/116 57/43/117
f 41/35/118 61/125/119 59/127/120
f 44/77/121 63/54/122 43/76/123
f 43/76/124 63/54/125 46/75/126
f 46/75/127 63/54/128 48/74/129
f 48/74/130 63/54/131 50/73/132
f 50/73/133 63/54/134 52/72/135
f 52/72/136 63/54/137 54/71/138
f 54/71/139 63/54/140 56/70/141
f 56/70/142 63/54/143 58/65/144
f 58/65/145 63/129/146 64/128/147
f 60/130/148 63/129/149 44/77/150
s 10
f 57/43/151 83/152/152 84/153/153 62/126/154
s 11
f 17/79/155 18/80/156 71/137/157 72/139/158
f 18/80/156 19/83/159 70/136/160 71/137/157
f 19/83/159 20/85/161 69/135/162 70/136/160
f 20/85/161 21/87/163 68/134/164 69/135/162
f 21/87/163 22/89/165 67/133/166 68/134/164
f 22/89/165 23/91/167 66/132/168 67/133/166
f 23/91/167 24/93/169 65/131/170 66/132/168
f 24/93/169 25/95/171 86/156/172 65/131/170
f 27/97/173 17/98/155 72/138/158 73/141/174
s off
f 18/101/175 17/102/176 39/103/177
f 19/104/178 18/101/179 39/103/180
s 12
f 20/105/181 19/104/182 39/103/183
f 21/106/184 20/105/181 39/103/183
s off
f 22/107/185 21/106/186 39/103/187
f 23/108/188 22/107/189 39/103/190
f 24/109/191 23/108/192 39/103/193
f 25/95/194 24/109/195 39/103/196
f 26/110/197 25/95/198 39/103/199
f 17/102/200 27/111/201 39/103/202
f 28/112/203 29/113/204 40/114/205
s 13
f 29/113/206 30/115/207 40/114/208
f 30/115/207 31/116/209 40/114/208
f 31/116/209 32/117/210 40/114/208
s off
f 32/117/211 33/118/212 40/114/213
f 33/118/214 34/119/215 40/114/216
f 34/119/217 35/120/218 40/114/219
f 35/120/220 36/96/221 40/114/222
f 36/96/223 37/121/224 40/114/225
f 38/122/226 28/112/227 40/114/228
s 11
f 25/95/171 26/110/229 85/154/230 86/156/172
f 73/140/174 74/142/231 59/124/232 27/55/233
s off
f 39/69/234 61/125/235 62/126/236 26/44/237
f 27/45/238 59/127/239 61/125/240 39/69/241
f 37/68/242 64/128/243 63/129/244 40/54/245
f 40/54/246 63/129/247 60/130/248 38/78/249
s 11
f 26/44/229 62/126/250 84/153/251 85/155/230
f 66/132/168 65/131/170 108/182/252 87/157/253
f 67/133/166 66/132/168 87/157/253 88/158/254
f 68/134/164 67/133/166 88/158/254 89/159/255
f 69/135/162 68/134/164 89/159/255 90/160/256
f 70/136/160 69/135/162 90/160/256 91/161/257
f 71/137/157 70/136/160 91/161/257 92/162/258
f 72/139/158 71/137/157 92/162/258 93/164/259
f 73/141/174 72/138/158 93/163/259 94/166/260
f 94/165/260 95/167/261 74/142/231 73/140/174
s 9
f 75/144/89 74/142/88 95/167/262 96/169/263
s 1
f 76/145/59 75/143/58 96/168/264 97/170/265
s 2
f 77/146/63 76/145/62 97/170/266 98/171/267
f 78/147/66 77/146/63 98/171/267 99/172/268
f 79/148/69 78/147/66 99/172/268 100/173/269
s 5
f 80/149/73 79/148/72 100/173/270 101/174/271
s 6
f 81/150/77 80/149/76 101/174/272 102/175/273
s 7
f 82/151/81 81/150/80 102/175/274 103/176/275
s 8
f 83/152/85 82/151/84 103/176/276 104/177/277
s 10
f 84/153/153 83/152/152 104/177/278 105/178/279
s 11
f 85/155/230 84/153/251 105/178/280 106/180/281
f 86/156/172 85/154/230 106/179/281 107/181/282
f 65/131/170 86/156/172 107/181/282 108/182/252
f 88/158/254 87/157/253 34/92/283 33/90/284
f 89/159/255 88/158/254 33/90/284 32/88/285
f 90/160/256 89/159/255 32/88/285 31/86/286
f 91/161/257 90/160/256 31/86/286 30/84/287
f 92/162/258 91/161/257 30/84/287 29/81/288
f 93/164/259 92/162/258 29/81/288 28/82/289
f 94/166/260 93/163/259 28/99/289 38/100/290
f 38/66/291 60/123/292 95/167/261 94/165/260
s 9
f 96/169/263 95/167/262 60/123/293 44/67/294
s 1
f 97/170/265 96/168/264 44/57/295 43/58/296
s 2
f 98/171/267 97/170/266 43/58/297 46/59/298
f 99/172/268 98/171/267 46/59/299 48/60/300
f 100/173/269 99/172/268 48/60/301 50/61/302
s 5
f 101/174/271 100/173/270 50/61/303 52/62/304
s 6
f 102/175/273 101/174/272 52/62/305 54/63/306
s 7
f 103/176/275 102/175/274 54/63/307 56/64/308
s 8
f 104/177/277 103/176/276 56/64/309 58/65/310
s 10
f 105/178/279 104/177/278 58/65/311 64/128/312
s 11
f 106/180/281 105/178/280 64/128/313 37/68/314
f 107/181/282 106/179/281 37/121/314 36/96/315
f 108/182/252 107/181/282 36/96/315 35/94/316
f 87/157/253 108/182/252 35/94/316 34/92/283
